<svg xmlns="http://www.w3.org/2000/svg" version="1" width="200" height="200" viewBox="0 0 200 200">
  <path d="M118 57c-7.4 1.6-15.4 6.3-21.8 13-6 6-6.6 7.4-4.8 11 2.7 5 1.8 5.4-3 1.2-6.2-5-10.5-7-18-8.2-8-1.3-9-.4-5.5 6.3 7.3 14.5 15 34.2 18.6 48.4 2.4 9 6.4 30 6.4 33.2 0 1.6.5 3.2 1 3.6 2.3 1.3 4-2.3 5-10 3.5-28.4 13-59 26.5-87 3-6 5.2-11.3 5-11.8-.7-1-4.6-1-9.5.2zm.5 9.7c-7.6 16-10.2 22.6-15.3 37.8-2.8 8.4-4.4 14.6-9 35l-1.8 7.7-1.8-7.8c-4.6-20-12-41.2-19-55.3C70 81.4 69 79 69 78.6c0-1.2 3.6-.3 9.4 2.5C84 83.7 93 91.5 93 93.8c0 2 3.4 2.3 4.7.6 1.4-2 1-6.2-1.3-12.6-1.2-3.4-1-4 1.4-7 3.8-5 10-9.5 16.8-12.2 3.3-1.3 6-2.3 6.3-2 0 0-1 3-2.5 6zm-50-14c-2.6.7-5.5 3.3-5.5 5 0 .7.8 1.3 1.8 1.3 3.5 0 14.3 6 18.7 10.4C88 74 91 75.2 91 72.6c0-.7 1.4-3.8 3-7 1.7-3 3-6 3-6.8 0-.7-2.2-2.4-4.8-3.7-3.7-1.8-6.6-2.4-13.2-2.6-4.7-.2-9.4 0-10.5.3zm18.2 5c2.6.8 5 1.6 5 1.8.5.4-3 7.5-3.6 7.5-.2 0-2-1.3-3.6-3-1.8-1.6-5.2-4-7.8-5-2.5-1.2-4.6-2.4-4.6-2.6 0-1 10.5-.2 14.7 1.2zM126.2 0c-3.4 0-5.2.4-5.5 1.5-.4.8.5 2.4 2.2 3.7 3.2 2.7 5.5 6.2 6.4 10l.6 2.6-7.2-2c-12.8-3.6-26 .3-36.2 10.8-6.6 6.8-6 10.8 1.4 7.3 6.2-3 14.6-3.7 22.5-1.5 8.2 2.2 9.7 3.8 5.3 5.6-3.6 1.5-12.5 7.8-14.7 10.3-1.8 2.4-2.7 2-6.3-1.4-4.8-5-10-7.8-16.5-9-5-1.2-7-1-11.6.2-6.7 1.8-7 1-2.3-5.2 1.7-2.4 3.6-5 4.2-5.6.5-.7.6-1.6.2-2-1.2-1.3-9.4-.6-12.5 1-4 2-8.8 8.2-9.7 12.3-.7 3.7-2.5 4-6.5 1.8-3.4-2-13.3-1.8-19.8.4C10.5 44 0 53.5 0 59.2c0 2.7 1.4 2.7 7 0 6-2.8 16-4 20-2.5 2.4 1 2.3 1-1.5 2.2C9.5 64.2 0 83.7 3 105.5c.5 4.3 1.2 8 1.5 8.3 1 1 3.5-.8 3.5-2.5 0-2.4 6-14 11-21.3 3.4-5 13.2-14 15.3-14 .3 0 0 1.5-.4 3.2-1.6 5.5-1 20.7 1 28.3 2 8.4 5.5 15.5 7.4 15.5 2 0 2.4-1.7 2-8-1-9.4 4-30.3 7.5-32.4 1.5-1 11 20.4 14.4 32.4 4 14.4 9.2 54.2 8.4 64-.3 4.3-.5 4.6-4.3 6-2.2.6-7.6 1.4-12 1.6-7 .3-8 .5-8.3 2.4-.3 2 .2 2 7.5 2 8.6 0 17.2-2 20-4.7 1.4-1.5 1.5-3.4 1-15.8C77 136.8 71 108.8 61 88.8c-5-9.7-8-13.8-9.6-13-2.7 1-9.3 16.3-10.7 24.6l-1.3 8-1.2-6.6c-2.2-12-1-23.2 3-29 3-4.4 1.8-7-2.4-4.7-5.7 3-16.5 10.6-18.3 13-3.4 4-9 12.3-11 16.3l-2 3.8-.3-6c-.4-7.3 1.6-14.6 5.6-20.5 3.6-5.3 5.5-7.5 6.5-7.5.4 0 2-1 3.5-2s5-2.4 8-3c2.8-.7 5.5-1.7 5.8-2.2.4-.6-.7-2.3-2.3-4-2.6-2.6-4-3-10.4-3.5-4.2-.2-9.5 0-11.8.5l-4.4 1 2-2.2c3-3 9.6-6.2 16.4-7.7 6.7-1.5 13.2-.2 17.3 3.5 3.8 3.6 6.5 2.3 6.5-3 0-5 2.8-10.5 6.6-13 3.3-2 3.8-1.5 2 2-1.8 3.4-2 11-.6 12 .6.4 2.7-.3 4.6-1.4 2.7-1.5 5.2-2 10.7-2 6.6 0 7.7.3 12.7 3.6 3 2 7 5 8.6 7 1.7 2 3.5 3.4 4 3.4.6 0 2.8-1.8 5-4 5-5.2 11.4-9.3 18.2-11.6 7.5-2.7 7-4.5-2.5-9-7.2-3.5-8.5-3.8-17-3.8-5 0-9.3-.4-9.3-.8 0-.3 2.6-2 5.8-4 5.3-3 6.3-3.3 14.7-3.3 7.4 0 9.8.4 13.8 2.3 5.4 2.7 7.7 2.4 7.7-1 0-3.8-2.7-11.8-4.6-14-3-3.2 1-2.3 5 1.3 4.7 4 6.7 8 7.5 14.4.6 5.8 2.8 7 6.3 3.8 8.6-7.8 24-6.7 37 2.6 6 4.3 6.6 6.2 1 4.2-1.4-.6-6.6-1-11.5-1-7.4 0-9.6.3-13 2.2-3.2 1.7-4.4 3-4.6 5-.3 2.6 0 2.8 3 2.8 12 0 25.7 12.3 29.4 26.4 1.8 6.5 3 20.6 1.8 20.6-.5 0-2.6-3-4.7-6.8-5.3-9.4-5.7-10-10-15.4-4.8-6-21-16.8-24.8-16.8-3 0-4 1.3-2 2.5s5 9 6.2 15.7c1.2 7.6 0 21.2-2.6 27l-1.4 3.3v-6c-.3-12.7-9.6-34.5-14.8-34.5-2 0-11.3 20-14.8 31.5-5 16.8-6.6 23.4-9.7 42.5-3 17-5.8 51.6-4.7 53.6.5 1 2.8 2.4 5 3.5 5.4 2.5 21.2 2.8 22 .5 1-2.2-.7-2.7-9.6-3-4.5 0-9.4-.7-11-1.3l-2.7-1 .6-9.4c1-17 4-42 5.8-50.8 6.4-28.7 8.7-36.4 15.2-50.7.8-1.7 1.4-3.5 1.4-4 0-.4 1-2 2-3.2l1.7-2.3 3.2 6.7c4 9 6 18.6 6 31 0 11.3 1 13.6 4 9.5 7-9 10.8-36.7 7-50.2-1-3.4 0-3.5 3.7-.5 1.5 1.3 4 3 5.5 4 2.2 1.4 13.8 16.5 13.8 18 0 .4 1.3 3 3 5.7 1.6 2.8 3.5 7 4 9.5 1 3.3 1.7 4.5 3 4.5 2.6 0 3.5-5 3.5-19 0-11.7-2-19.6-6.4-27-4.6-7.8-13.5-14.6-22.5-17.5-2-.6-2-.6 0-1.8 2.6-1.4 13-1.4 18 .2 2.2.5 6 2 8.2 3.3 11.5 6 5.5-8-7.2-16.8C177.2 17 160 14.8 152 19c-4.8 2.5-5 2.5-5 0 0-2-4.2-10.2-6.7-12.7-4-4-9-6.3-14-6.3z"/>
</svg>
